<?xml version="1.0" encoding="UTF-8" standalone="no"?>
<!-- Created with Inkscape (http://www.inkscape.org/) -->

<svg
   xmlns:dc="http://purl.org/dc/elements/1.1/"
   xmlns:cc="http://creativecommons.org/ns#"
   xmlns:rdf="http://www.w3.org/1999/02/22-rdf-syntax-ns#"
   xmlns:svg="http://www.w3.org/2000/svg"
   xmlns="http://www.w3.org/2000/svg"
   xmlns:sodipodi="http://sodipodi.sourceforge.net/DTD/sodipodi-0.dtd"
   xmlns:inkscape="http://www.inkscape.org/namespaces/inkscape"
   width="1000"
   height="342.543"
   viewBox="0 0 1000 342.543"
   id="svg5327"
   version="1.1"
   inkscape:version="0.91 r13725"
   sodipodi:docname="Nintendo_White_with_Red_background.svg">
  <defs
     id="defs5329">
	

	
</defs>
  <sodipodi:namedview
     id="base"
     pagecolor="#ffffff"
     bordercolor="#666666"
     borderopacity="1.0"
     inkscape:pageopacity="0.0"
     inkscape:pageshadow="2"
     inkscape:zoom="0.70710678"
     inkscape:cx="558.43893"
     inkscape:cy="154.98941"
     inkscape:document-units="px"
     inkscape:current-layer="layer1"
     showgrid="false"
     units="px"
     inkscape:window-width="1366"
     inkscape:window-height="705"
     inkscape:window-x="-8"
     inkscape:window-y="-8"
     inkscape:window-maximized="1" />
  <metadata
     id="metadata5332">
    <rdf:RDF>
      <cc:Work
         rdf:about="">
        <dc:format>image/svg+xml</dc:format>
        <dc:type
           rdf:resource="http://purl.org/dc/dcmitype/StillImage" />
        <dc:title></dc:title>
      </cc:Work>
    </rdf:RDF>
  </metadata>
  <g
     inkscape:label="Layer 1"
     inkscape:groupmode="layer"
     id="layer1"
     transform="translate(0,-709.81916)">
    <rect
       height="342.54333"
       width="999.99994"
       class="red"
       id="bg"
       x="0"
       y="709.81885"
       style="fill:#e60012" />
    <path
       d="m 150.36086,830.33694 31.5226,0 43.6057,70.55225 -0.0232,-70.55225 31.27932,0 0,101.17123 -31.23298,0 -43.8374,-70.55225 0,70.55225 -31.32566,0 0.0116,-101.17123 z m 276.42811,10.40327 30.44521,0 0,13.6123 16.47377,0 0,10.00938 -16.47377,0 0.0232,67.14628 -30.46837,0 0.0116,-67.14628 -16.54328,0 0,-9.98621 16.55487,-0.0116 -0.0232,-13.62388 z m -152.63151,23.48266 30.42204,0.0116 0,67.27371 -30.42204,0 0,-67.2853 z m -0.0695,-33.9091 30.49155,0 0,20.67911 -30.49155,0 0,-20.67911 z m 545.44187,67.01884 c 0,0 -0.0116,10.17157 -0.0116,14.24947 0,10.72765 -6.33696,15.15309 -12.43063,15.15309 -6.10526,0 -12.46539,-4.42544 -12.46539,-15.15309 0,-4.0779 0.0116,-14.50434 0.0116,-14.50434 0,0 0.0232,-9.95146 0.0232,-14.02935 0,-10.68131 6.37172,-15.072 12.43064,-15.072 6.0705,0 12.43063,4.39069 12.43063,15.072 0,4.07789 -0.0116,11.61969 0.0232,14.31898 l -0.0116,-0.0348 0,0 z m -12.22211,-37.69737 c -24.56006,0 -44.46298,16.914 -44.46298,37.77847 0,20.86446 19.91451,37.77847 44.46298,37.77847 24.56006,0 44.46298,-16.91401 44.46298,-37.77847 0,-20.86447 -19.90292,-37.77847 -44.46298,-37.77847 l 0,0 z m -84.39624,-29.2983 30.02815,0 0,101.17123 -30.07449,0 c 0,0 -0.0116,-3.26695 -0.0116,-3.89254 -11.64286,7.31009 -24.78017,7.29851 -35.00967,2.52551 -2.74563,-1.27434 -20.80654,-9.93987 -20.80654,-33.35302 0,-17.7597 16.75181,-37.15288 38.68209,-35.22978 7.21742,0.63717 12.34954,3.26695 17.21522,6.00099 -0.0232,-15.57015 -0.0232,-37.22239 -0.0232,-37.22239 l 0,0 z m 0.22011,67.19262 c 0,0 0,-8.43384 0,-12.02517 0,-10.40327 -7.18266,-13.05622 -11.90931,-13.05622 -4.8425,0 -11.93248,2.65295 -11.93248,13.05622 0,3.45231 0.0116,11.99041 0.0116,11.99041 0,0 -0.0116,8.38749 -0.0116,11.96724 0,10.39168 7.08998,13.11414 11.92089,13.11414 4.73824,0 11.93249,-2.72246 11.93249,-13.11414 0,-4.32118 -0.0116,-11.93248 -0.0116,-11.93248 l 0,0 z M 375.80367,861.11811 c 11.37641,-0.32438 34.4536,7.12473 34.29141,33.7585 -0.0232,4.72665 -0.0116,36.60839 -0.0116,36.60839 l -30.22509,0 c 0,0 0,-39.97961 0,-44.18494 0,-5.86198 -5.60711,-12.3843 -13.90192,-12.3843 -8.28323,0 -14.44641,6.52232 -14.44641,12.3843 0,2.87306 0.0348,44.18494 0.0348,44.18494 l -30.20192,0 -0.0116,-67.27371 30.2251,-0.0232 c 0,0 -0.0348,5.41016 0,7.07839 5.81563,-5.54918 14.19154,-9.85878 24.24726,-10.1484 l 0,0 z m 247.24567,0 c 11.3764,-0.32438 34.45359,7.12473 34.2914,33.7585 -0.0232,4.72665 -0.0116,36.60839 -0.0116,36.60839 l -30.2251,0 c 0,0 0,-39.97961 0,-44.18494 0,-5.86198 -5.60711,-12.3843 -13.90192,-12.3843 -8.28323,0 -14.44641,6.52232 -14.44641,12.3843 0,2.87306 0.0348,44.18494 0.0348,44.18494 l -30.20192,0 0.0232,-67.27371 30.19034,-0.0232 c 0,0 -0.0348,5.41016 0,7.07839 5.81564,-5.54918 14.20313,-9.85878 24.24727,-10.1484 l 0,0 z M 502.0447,887.68236 c -0.0463,-5.89673 0.0811,-9.83561 2.01578,-13.19524 2.37491,-4.1474 6.74243,-6.11684 10.70448,-6.14001 l -0.0116,0 c 3.96205,0.0232 8.32957,1.99261 10.70448,6.14001 1.93469,3.37122 2.01578,7.3101 1.96944,13.20683 l -25.38259,-0.0116 0,0 z m 25.27833,20.28522 c 0,0 0.0232,0.30121 0.0232,4.0779 0,12.3032 -8.09787,15.03724 -12.59283,15.03724 -4.49495,0 -12.73184,-2.73404 -12.73184,-15.03724 0,-3.68401 0.0232,-13.89034 0.0232,-13.89034 0,0 57.31067,0.0232 57.31067,-0.0116 0,-20.86447 -20.1462,-38.14919 -44.89162,-38.14919 -24.74542,0 -44.79894,16.914 -44.79894,37.77847 0,20.86447 20.05352,37.76688 44.79894,37.76688 20.5285,0 37.87115,-11.71236 43.16546,-27.59531 l -30.30618,0.0232 0,0 z m 329.1859,-70.10043 c 4.92359,0 7.36801,1.66823 7.36801,4.96993 0,2.27065 -1.41336,3.98522 -3.7651,4.57605 l 3.85778,7.70398 -4.66873,0 -3.3017,-7.06681 -2.05053,0 0,7.06681 -4.20534,0 0,-17.24996 6.76561,0 0,0 z m -0.38231,-6.74244 c -8.59602,0 -15.57015,6.97413 -15.57015,15.57016 0,8.59602 6.97413,15.57015 15.57015,15.57015 8.59602,0 15.57015,-6.97413 15.57015,-15.57015 0,-8.59603 -6.97413,-15.57016 -15.57015,-15.57016 l 0,0 z m 12.59283,15.58174 c 0,6.95096 -5.64187,12.59282 -12.59283,12.59282 -6.95096,0 -12.59282,-5.64186 -12.59282,-12.59282 0,-6.95096 5.64186,-12.59282 12.59282,-12.59282 6.95096,0 12.59283,5.63027 12.59283,12.59282 l 0,0 z m -14.77079,-1.18166 2.05053,0 c 2.39808,0 3.55657,-0.72985 3.55657,-2.44442 0,-1.79567 -1.23958,-2.57186 -3.7651,-2.57186 l -1.842,0 0,5.01628 0,0 0,0 z M 177.92142,988.55238 C 109.52397,988.52921 63.821401,940.05785 63.821401,881.28748 l 0,0 c 0,-58.77037 45.806829,-107.79781 113.995749,-107.64721 l 644.3772,0 c 68.18892,-0.1506 113.99575,48.87684 113.99575,107.64721 l 0,0 c 0,58.77037 -45.70256,107.24173 -114.10001,107.2649 l -644.16867,0 0,0 z m 0.20853,-188.47529 c -54.14799,0.10427 -87.385162,36.2956 -87.385162,81.07137 l 0,0 c 0,44.76418 33.028642,81.25673 87.385162,81.05978 l 643.75161,0 c 54.35651,0.18536 87.39674,-36.2956 87.39674,-81.05978 l 0,0 c 0,-44.76419 -33.23718,-80.95552 -87.38516,-81.05978 l -643.76319,-0.0116 0,0 z"
       class="white"
       id="logo"
       inkscape:connector-curvature="0"
       style="fill:#ffffff" />
  </g>
  <style
     id="style5877"
     type="text/css">
	.red{fill:#E60012;}
	.white{fill:#FFFFFF;}
</style>
</svg>
